<svg width="46" height="45" viewBox="0 0 46 45" fill="none" xmlns="http://www.w3.org/2000/svg">
<g clip-path="url(#clip0_1045_26)">
<path d="M45.9926 11.4848C45.9926 10.1011 45.8733 8.72297 45.5355 7.37578C44.9288 4.92188 43.4985 3.04734 41.3581 1.67062C40.257 0.9675 39.0452 0.535781 37.7572 0.307969C36.768 0.138681 35.7669 0.0455826 34.7628 0.0295312C34.6881 0.0225 34.6062 0.00703125 34.5228 0H11.4782C11.1864 0.0225 10.8946 0.0365625 10.6028 0.050625C9.17247 0.130781 7.75078 0.277031 6.4024 0.804375C3.84222 1.79297 1.99215 3.52125 0.914029 6.01172C0.540279 6.85406 0.351967 7.74703 0.218279 8.65547C0.106154 9.38813 0.0457794 10.1278 0.0242169 10.8675C0.0242169 10.9266 0.00984192 10.9842 0.00984192 11.0433V33.9609L0.0544044 34.7527C0.152154 36.2841 0.353404 37.8 1.01322 39.2062C2.25665 41.8655 4.34534 43.6148 7.21315 44.4572C8.01384 44.6991 8.85334 44.8088 9.6914 44.8819C10.7552 44.9845 11.8175 44.9986 12.8812 44.9986H34.024C35.0273 44.9986 36.0307 44.9325 37.0341 44.8088C38.6139 44.6105 40.096 44.1562 41.4372 43.2928C43.0247 42.2867 44.2765 40.848 45.0381 39.1542C45.3975 38.3625 45.6002 37.5216 45.7497 36.6708C45.9667 35.4038 46.0113 34.1213 46.0113 32.8402C46.0041 25.7203 46.0113 18.6019 46.0041 11.482L45.9926 11.4848ZM33.6833 18.9619V29.6705C33.6833 30.4538 33.5712 31.223 33.2118 31.9331C32.6583 33.0384 31.7599 33.7345 30.5538 34.072C29.8857 34.2593 29.197 34.3675 28.5025 34.3941C27.6292 34.4446 26.7674 34.1791 26.0811 33.6483C25.3949 33.1175 24.9321 32.3584 24.7808 31.5155C24.6423 30.757 24.7621 29.9751 25.1217 29.2897C25.4814 28.6043 26.0611 28.0533 26.7718 27.7214C27.3856 27.4289 28.0526 27.2531 28.7182 27.1209C29.4441 26.9677 30.17 26.8284 30.8888 26.6667C31.4207 26.55 31.7642 26.235 31.8692 25.6992C31.8993 25.5825 31.9065 25.4573 31.9065 25.3406V15.1313C31.9039 15.0148 31.8866 14.899 31.8548 14.7867C31.78 14.5013 31.5702 14.3325 31.2712 14.3466C30.9635 14.3606 30.6645 14.4127 30.3655 14.4717C28.905 14.7502 27.446 15.0356 25.9927 15.3281L18.9029 16.7273C18.8727 16.7344 18.8353 16.7498 18.8052 16.7498C18.2733 16.8961 18.0864 17.1309 18.0634 17.6723C18.0562 17.7525 18.0634 17.8341 18.0634 17.9142C18.0562 22.7925 18.0634 27.6708 18.0562 32.5477C18.0562 33.3394 17.9657 34.1156 17.6451 34.8469C17.1132 36.0478 16.1702 36.803 14.898 37.1616C14.2255 37.3531 13.531 37.4613 12.8309 37.4836C10.9967 37.5497 9.46859 36.3558 9.15522 34.5909C8.88497 33.068 9.59653 31.4269 11.3632 30.6942C12.0518 30.4158 12.7633 30.2625 13.4893 30.1163L15.1367 29.7872C15.8698 29.6339 16.2522 29.1797 16.2895 28.447V11.513C16.2895 11.2781 16.3197 11.0447 16.3715 10.8169C16.5066 10.2825 16.8962 9.97453 17.4194 9.84938C17.9067 9.72422 18.4084 9.63703 18.9015 9.53438C20.3088 9.25594 21.7089 8.9775 23.1162 8.70609L27.4661 7.84125C28.7541 7.59234 30.0335 7.33641 31.3215 7.0875C31.7412 7.00734 32.1682 6.91875 32.5937 6.88922C33.1845 6.83859 33.597 7.20422 33.6574 7.79063C33.6718 7.92984 33.6804 8.06906 33.6804 8.20828V18.9534L33.6833 18.9619Z" fill="#283131"/>
</g>
<defs>
<clipPath id="clip0_1045_26">
<rect width="46" height="45" fill="white"/>
</clipPath>
</defs>
</svg>
