<svg width="56" height="55" viewBox="0 0 56 55" fill="none" xmlns="http://www.w3.org/2000/svg">
<path d="M18.2 4.5835H37.8C45.2667 4.5835 51.3333 10.5418 51.3333 17.8752V37.1252C51.3333 40.6503 49.9075 44.0311 47.3695 46.5238C44.8315 49.0165 41.3893 50.4168 37.8 50.4168H18.2C10.7333 50.4168 4.66667 44.4585 4.66667 37.1252V17.8752C4.66667 14.35 6.0925 10.9692 8.63049 8.47654C11.1685 5.98386 14.6107 4.5835 18.2 4.5835ZM17.7333 9.16683C15.5055 9.16683 13.3689 10.036 11.7936 11.5832C10.2183 13.1304 9.33334 15.2288 9.33334 17.4168V37.5835C9.33334 42.1439 13.09 45.8335 17.7333 45.8335H38.2667C40.4945 45.8335 42.6311 44.9643 44.2064 43.4171C45.7817 41.87 46.6667 39.7715 46.6667 37.5835V17.4168C46.6667 12.8564 42.91 9.16683 38.2667 9.16683H17.7333ZM40.25 12.6043C41.0236 12.6043 41.7654 12.9061 42.3124 13.4433C42.8594 13.9806 43.1667 14.7092 43.1667 15.4689C43.1667 16.2286 42.8594 16.9573 42.3124 17.4945C41.7654 18.0317 41.0236 18.3335 40.25 18.3335C39.4765 18.3335 38.7346 18.0317 38.1876 17.4945C37.6406 16.9573 37.3333 16.2286 37.3333 15.4689C37.3333 14.7092 37.6406 13.9806 38.1876 13.4433C38.7346 12.9061 39.4765 12.6043 40.25 12.6043ZM28 16.0418C31.0942 16.0418 34.0617 17.249 36.2496 19.3979C38.4375 21.5468 39.6667 24.4612 39.6667 27.5002C39.6667 30.5391 38.4375 33.4536 36.2496 35.6024C34.0617 37.7513 31.0942 38.9585 28 38.9585C24.9058 38.9585 21.9384 37.7513 19.7504 35.6024C17.5625 33.4536 16.3333 30.5391 16.3333 27.5002C16.3333 24.4612 17.5625 21.5468 19.7504 19.3979C21.9384 17.249 24.9058 16.0418 28 16.0418ZM28 20.6252C26.1435 20.6252 24.363 21.3495 23.0503 22.6388C21.7375 23.9281 21 25.6768 21 27.5002C21 29.3235 21.7375 31.0722 23.0503 32.3615C24.363 33.6508 26.1435 34.3752 28 34.3752C29.8565 34.3752 31.637 33.6508 32.9498 32.3615C34.2625 31.0722 35 29.3235 35 27.5002C35 25.6768 34.2625 23.9281 32.9498 22.6388C31.637 21.3495 29.8565 20.6252 28 20.6252Z" fill="#283131"/>
</svg>
