<svg width="56" height="55" viewBox="0 0 56 55" fill="none" xmlns="http://www.w3.org/2000/svg">
<path d="M41.7667 24.9793C34.3 20.6252 21.8167 20.1668 14.7 22.3439C13.5333 22.6877 12.3667 22.0002 12.0167 20.9689C11.6667 19.8231 12.3667 18.6772 13.4167 18.3335C21.7 15.9272 35.35 16.3856 43.9833 21.4272C45.0333 22.0002 45.3833 23.3752 44.8 24.4064C44.2167 25.2085 42.8167 25.5522 41.7667 24.9793ZM41.5333 31.396C40.95 32.1981 39.9 32.5418 39.0833 31.9689C32.7833 28.1877 23.2167 27.0418 15.8667 29.3335C14.9333 29.5627 13.8833 29.1043 13.65 28.1877C13.4167 27.271 13.8833 26.2397 14.8167 26.0106C23.3333 23.4897 33.8333 24.7502 41.0667 29.1043C41.7667 29.4481 42.1167 30.5939 41.5333 31.396ZM38.7333 37.6981C38.2667 38.3856 37.45 38.6147 36.75 38.1564C31.2667 34.8335 24.3833 34.146 16.2167 35.9793C15.4 36.2085 14.7 35.6356 14.4667 34.9481C14.2333 34.146 14.8167 33.4585 15.5167 33.2293C24.3833 31.2814 32.0833 32.0835 38.15 35.7502C38.9667 36.0939 39.0833 37.0106 38.7333 37.6981ZM28 4.5835C24.9358 4.5835 21.9017 5.17625 19.0707 6.32792C16.2398 7.47959 13.6675 9.16762 11.5008 11.2956C7.12499 15.5933 4.66667 21.4223 4.66667 27.5002C4.66667 33.578 7.12499 39.407 11.5008 43.7047C13.6675 45.8327 16.2398 47.5207 19.0707 48.6724C21.9017 49.8241 24.9358 50.4168 28 50.4168C34.1884 50.4168 40.1233 48.0024 44.4992 43.7047C48.875 39.407 51.3333 33.578 51.3333 27.5002C51.3333 24.4907 50.7298 21.5107 49.5572 18.7303C48.3846 15.95 46.6659 13.4236 44.4992 11.2956C42.3325 9.16762 39.7602 7.47959 36.9293 6.32792C34.0984 5.17625 31.0642 4.5835 28 4.5835Z" fill="#283131"/>
</svg>
