<svg width="39" height="45" viewBox="0 0 39 45" fill="none" xmlns="http://www.w3.org/2000/svg">
<path d="M30.9413 7.05C29.2411 5.09906 28.3041 2.59358 28.3048 0H20.6193V31C20.56 32.6776 19.8554 34.2665 18.6538 35.4323C17.4522 36.5981 15.8474 37.2498 14.1773 37.25C10.6454 37.25 7.71046 34.35 7.71046 30.75C7.71046 26.45 11.8393 23.225 16.0925 24.55V16.65C7.51148 15.5 0 22.2 0 30.75C0 39.075 6.8648 45 14.1524 45C21.9624 45 28.3048 38.625 28.3048 30.75V15.025C31.4214 17.2746 35.1631 18.4816 39 18.475V10.75C39 10.75 34.324 10.975 30.9413 7.05Z" fill="#283131"/>
</svg>
