<svg width="57" height="45" viewBox="0 0 57 45" fill="none" xmlns="http://www.w3.org/2000/svg">
<path d="M57 5.29412C54.902 6.22059 52.6405 6.82941 50.2973 7.12059C52.695 5.71765 54.5478 3.49412 55.4197 0.820588C53.1582 2.14412 50.6515 3.07059 48.0086 3.6C45.8561 1.32353 42.8317 0 39.3987 0C32.9957 0 27.7643 5.08235 27.7643 11.3559C27.7643 12.2559 27.8733 13.1294 28.0641 13.95C18.3642 13.4735 9.72706 8.94706 3.97801 2.09118C2.96989 3.75882 2.39771 5.71765 2.39771 7.78235C2.39771 11.7265 4.44121 15.2206 7.60182 17.2059C5.6673 17.2059 3.86903 16.6765 2.28872 15.8824V15.9618C2.28872 21.4676 6.32122 26.0735 11.6616 27.1059C9.94701 27.5617 8.14701 27.6252 6.40296 27.2912C7.143 29.5477 8.59233 31.5223 10.5472 32.9372C12.5021 34.3521 14.8643 35.1362 17.3016 35.1794C13.17 38.357 8.04865 40.0747 2.77916 40.05C1.85277 40.05 0.926386 39.9971 0 39.8912C5.17686 43.1206 11.3346 45 17.9283 45C39.3987 45 51.1965 27.6882 51.1965 12.6794C51.1965 12.1765 51.1965 11.7 51.1692 11.1971C53.4579 9.60882 55.4197 7.59706 57 5.29412Z" fill="#283131"/>
</svg>
